<svg xmlns="http://www.w3.org/2000/svg" version="1.1" id="Layer_1" x="0px" y="0px" width="320" height="127.179" viewBox="0 0 320 127.179" xml:space="preserve">
<g transform="scale(2.0512821)">
	<linearGradient id="SVGID_1_" gradientUnits="userSpaceOnUse" x1="0" y1="30.968" x2="156" y2="30.968">
		<stop offset="0.2" style="stop-color:#0077BF"></stop>
		<stop offset="0.5" style="stop-color:#6E3593"></stop>
		<stop offset="0.8" style="stop-color:#E33025"></stop>
	</linearGradient>
	<path fill="url(#SVGID_1_)" d="M 31,0 C 13.9,0 0,13.9 0,31 0,48.1 13.9,62 31,62 40.4,62 48.8,57.799219 54.5,51.199219 60.2,57.799219 68.6,62 78,62 87.4,62 95.8,57.799219 101.5,51.199219 107.2,57.799219 115.6,62 125,62 c 17.1,0 31,-13.9 31,-31 0,-5.8 -1.60078,-11.099219 -4.30078,-15.699219 L 150,12.400391 C 144.3,5.0003906 135.3,0 125,0 115.6,0 107.2,4.2007812 101.5,10.800781 95.8,4.2007812 87.4,0 78,0 68.6,0 60.2,4.2007812 54.5,10.800781 48.8,4.2007812 40.4,0 31,0 Z"></path>
	<path fill="#FFFFFF" d="m 145,13.7 c 1.4,0 2.3,0.3 2.8,0.7 0.5,0.4 0.7,1 0.7,1.8 0,0.5 -0.1,1.1 -0.2,1.7 -0.1,0.6 -0.5,1.7 -1.1,3.4 l -5.8,16 -6.5,-17.7 c -0.8,-2.2 -1.2,-3.5 -1.2,-3.9 0,-0.4 0.1,-0.7 0.3,-1 0.2,-0.3 0.5,-0.5 0.9,-0.7 0.5,-0.2 1.4,-0.3 2.6,-0.3 v -1 h -17.4 v 1 c 1.1,0 2,0.2 2.5,0.5 0.6,0.3 1.1,0.8 1.5,1.6 0.4,0.7 1.1,2.2 1.9,4.4 l 1.5,4 -5.6,14.2 -7,-18.2 c -0.9,-2.3 -1.3,-3.7 -1.3,-4.4 0,-0.5 0.2,-1 0.6,-1.3 0.4,-0.4 1.2,-0.6 2.5,-0.6 v -1 h -16.5 v 1 c 1.1,0 1.8,0.2 2.3,0.5 0.6,0.3 1.1,0.8 1.5,1.6 0.4,0.7 1.1,2.2 1.9,4.4 l 0.1,0.3 11.8,30.3 h 1 l 9.8,-24.1 8.9,24.1 h 1 l 11.2,-30.9 c 1,-2.6 1.6,-4.1 1.7,-4.3 0.1,-0.2 0.2,-0.3 0.3,-0.5 L 150.17586,12.700001 145,12.7 Z"></path>
	<polygon fill="#FFFFFF" points="23.5,12.7 11.1,12.7 11.1,18.8 15.2,18.8 15.2,44.8 11.1,44.8 11.1,51 27.4,51 27.4,44.8 23.2,44.8 23.2,26.5 40.4,51 48.6,51 48.6,18.8 52.7,18.8 52.7,12.7 36.4,12.7 36.4,18.8 40.6,18.8 40.6,37.5 "></polygon>
	<path fill="#FFFFFF" d="m 91.7,43.1 c -7.2,3.2 -13.7,1.3 -17.3,-1 -5.4,-3.5 -7,-8.7 -6.5,-13.4 0.4,-4 2.8,-7.9 6.8,-9.4 3.8,-1.4 7.6,-0.6 9.1,2.9 1.5,3.4 -0.2,7.3 -4.2,9.1 -2.5,1.1 -4.6,1 -6.1,0.8 0,0 -2,-0.4 -0.7,1.3 1.3,1.7 6.8,4.3 12.4,1.8 6.1,-2.8 9.3,-9.4 6.4,-16.1 C 88.3,11.7 78.3,8.7 69.7,12.6 63.4,15.4 59.3,21.5 58.6,29 58,35.1 60,42.7 66.1,47.7 c 5.6,4.6 16.2,7.6 25.9,2.2 3.1,-1.7 5.6,-4.1 7.6,-6.9 2.2,-3.5 3.5,-7.6 3.5,-12 0,-1 -0.1,-1.9 -0.2,-2.9 -1.2,6.5 -5.3,12.3 -11.2,15 z"></path>
</g>
</svg>
